<svg height="512pt" viewBox="-88 0 512 512" width="512pt" xmlns="http://www.w3.org/2000/svg"><path d="m64.125 231.953125h15.03125v16.03125h-15.03125zm0 0"/><path d="m96.1875 175.34375c26.242188 0 47.59375-21.351562 47.59375-47.59375s-21.351562-47.59375-47.59375-47.59375-47.59375 21.351562-47.59375 47.59375 21.351562 47.59375 47.59375 47.59375zm0-80.15625c17.957031 0 32.5625 14.605469 32.5625 32.5625 0 17.953125-14.605469 32.5625-32.5625 32.5625s-32.5625-14.609375-32.5625-32.5625c0-17.957031 14.605469-32.5625 32.5625-32.5625zm0 0"/><path d="m256.5 192.875h-256.5v159.3125h15.03125v-144.28125h241.46875zm0 0"/><path d="m40.078125 231.953125h15.03125v256.5h-15.03125zm0 0"/><path d="m88.171875 352.1875h15.03125v136.265625h-15.03125zm0 0"/><path d="m256.5 232.953125h-120.234375v255.5h15.03125v-240.46875h105.203125zm0 0"/><path d="m264.515625 264.015625v29.953125l-10.964844-11.21875-10.503906 10.625 29.421875 29.363281 29.394531-29.363281-10.863281-10.625-11.453125 11.21875v-29.953125zm0 0"/><path d="m240.46875 143.28125c39.503906 0 71.640625-32.140625 71.640625-71.640625 0-39.503906-32.136719-71.640625-71.640625-71.640625-39.5 0-71.640625 32.136719-71.640625 71.640625 0 39.5 32.140625 71.640625 71.640625 71.640625zm0-128.25c31.214844 0 56.613281 25.394531 56.613281 56.609375s-25.398437 56.609375-56.613281 56.609375-56.609375-25.394531-56.609375-56.609375 25.394531-56.609375 56.609375-56.609375zm0 0"/><path d="m232.453125 95.6875h15.03125v16.03125h-15.03125zm0 0"/><path d="m232.453125 31.5625h15.03125v48.09375h-15.03125zm0 0"/><path d="m314.917969 336.292969c-11.511719-4.933594-26.527344-7.652344-42.511719-7.652344-15.980469 0-31.308594 2.71875-42.824219 7.652344-13.53125 5.800781-21.175781 14.292969-21.175781 23.910156v120.234375c0 9.621094 7.707031 18.109375 21.238281 23.910156 11.511719 4.933594 26.78125 7.652344 42.761719 7.652344 15.984375 0 30.9375-2.71875 42.449219-7.652344 13.535156-5.800781 20.800781-14.289062 20.800781-23.910156v-120.234375c0-9.617187-7.203125-18.109375-20.738281-23.910156zm-42.386719 7.378906c31.445312 0 48.597656 10.921875 48.597656 16.53125 0 5.613281-17.152344 16.53125-48.597656 16.53125-31.441406 0-48.59375-10.917969-48.59375-16.53125 0-5.609375 17.152344-16.53125 48.59375-16.53125zm-.5 153.296875c-31.441406 0-48.59375-10.917969-48.59375-16.53125v-99.289062c2.003906 1.050781 4.0625 2.046874 6.207031 2.964843 11.511719 4.933594 26.78125 7.652344 42.761719 7.652344 15.984375 0 30.9375-2.71875 42.449219-7.652344 2.148437-.917969 4.769531-1.914062 5.769531-2.964843v99.289062c0 5.613281-17.152344 16.53125-48.59375 16.53125zm0 0"/><path d="m296.578125 464.40625h15.03125v16.03125h-15.03125zm0 0"/><path d="m296.578125 400.28125h15.03125v48.09375h-15.03125zm0 0"/></svg>