<svg xmlns="http://www.w3.org/2000/svg" xmlns:xlink="http://www.w3.org/1999/xlink" width="512" height="512" preserveAspectRatio="xMidYMid meet" viewBox="0 0 512 512" style="-ms-transform: rotate(360deg); -webkit-transform: rotate(360deg); transform: rotate(360deg);"><path d="M296 464a23.88 23.88 0 0 1-7.55-1.23L208.3 436.1a23.92 23.92 0 0 1-16.3-22.78V294.11a.44.44 0 0 0-.09-.13L23.26 97.54A30 30 0 0 1 46.05 48H466a30 30 0 0 1 22.79 49.54L320.09 294a.77.77 0 0 0-.09.13V440a23.93 23.93 0 0 1-24 24z" fill="#1e90ff"/><rect x="0" y="0" width="512" height="512" fill="rgba(0, 0, 0, 0)" /></svg>